<?xml version="1.0" encoding="utf-8"?>
<!-- Generator: Adobe Illustrator 15.0.0, SVG Export Plug-In . SVG Version: 6.00 Build 0)  -->
<!DOCTYPE svg PUBLIC "-//W3C//DTD SVG 1.1//EN" "http://www.w3.org/Graphics/SVG/1.1/DTD/svg11.dtd">
<svg version="1.1" id="Layer_1" xmlns="http://www.w3.org/2000/svg" xmlns:xlink="http://www.w3.org/1999/xlink" x="0px" y="0px"
	 width="450px" height="478.581px" viewBox="0 0 450 478.581" enable-background="new 0 0 450 478.581" xml:space="preserve">
<g>
	<g>
		<path d="M1106.394,42.52c-56.24,4.833-113.171,10.828-166.375,30.828c-23.529,8.845-48.561,20.118-66.604,38.062
			c-8.546,8.499-15.034,18.872-18.913,30.272c-4.597,13.515-1.324,28.078,2.767,41.246c4.286,13.796,8.231,27.77,12.818,41.461
			c4.034,12.039,8.932,23.771,12.631,35.925c3.748,12.316,5.659,25.009,4.345,37.871c-1.446,14.151-7.631,26.862-13.665,39.526
			c-11.899,24.971-25.929,49.073-44.76,69.493c-19.501,21.147-43.809,37.803-69.677,50.146
			c-25.307,12.076-52.632,19.91-80.259,24.428c-26.507,4.334-54.038,13.823-81.095,8.753c-0.524-0.099-2.263,0.741-1.213,0.938
			c25.764,4.829,52.363-3.31,77.55-7.989c26.393-4.905,51.963-10.922,76.771-21.451c25.006-10.613,47.521-25.222,67.823-43.208
			c19.676-17.431,34.673-39.345,47.127-62.326c12.645-23.332,25.82-47.951,23.423-75.266c-2.224-25.346-15.388-48.498-21.72-72.875
			c-3.753-14.446-9.946-28.204-12.385-42.99c-2.467-14.957,1.78-28.832,9.877-41.338c15.213-23.498,42.822-36.49,67.818-46.85
			c54.644-22.649,114.532-28.677,172.928-33.695C1106.217,43.428,1107.68,42.41,1106.394,42.52L1106.394,42.52z"/>
	</g>
</g>
<path fill="none" stroke="#000000" stroke-miterlimit="10" d="M-3,46c14.832-9.236,47.781,5.274,62.948,10.831
	c13.2,4.836,24.425,12.879,32.862,24.151c12.97,17.327,16.693,34.833,17.139,55.671c0.615,28.738-18.414,49.269-13.219,78.281
	c3.887,21.708,20.951,38.889,35.333,54.692c25.134,27.617,55.109,51.28,85.684,72.429c17.219,11.911,32.477,29.534,52.134,37.01
	c41.527,15.794,80.108,35.428,124.861,39.232c12.675,1.078,24.824-2.308,37.258-1.297"/>
</svg>
